<svg width="176" height="48" viewBox="0 0 176 48" fill="none" xmlns="http://www.w3.org/2000/svg">
<path d="M168.401 45.0129C167.156 46.2718 165.414 47.033 163.511 47.033C161.608 47.033 159.866 46.2572 158.622 45.0129C157.378 43.754 156.602 42.0266 156.602 40.109C156.602 38.1913 157.378 36.4639 158.622 35.205C159.866 33.9461 161.608 33.1849 163.511 33.1849C165.414 33.1849 167.156 33.9607 168.401 35.205C169.645 36.4639 170.421 38.1913 170.421 40.109C170.421 42.0266 169.645 43.754 168.401 45.0129ZM169.074 34.5316C167.654 33.0971 165.678 32.2188 163.511 32.2188C161.345 32.2188 159.369 33.0971 157.934 34.5316C156.514 35.9516 155.621 37.9278 155.621 40.109C155.621 42.2901 156.499 44.2517 157.934 45.6863C159.354 47.1208 161.33 47.9992 163.511 47.9992C165.692 47.9992 167.654 47.1208 169.074 45.6863C170.494 44.2663 171.387 42.2901 171.387 40.109C171.387 37.9278 170.509 35.9662 169.074 34.5316Z" fill="white"/>
<path d="M163.509 39.3486L166.496 43.3303H160.523L163.509 39.3486ZM161.167 38.2653L163.539 35.1619L165.91 38.2653H161.167ZM164.783 39.3047H168.018L163.553 33.4492L159.088 39.3047H162.25L158.43 44.3696H168.604L164.783 39.3047Z" fill="white"/>
<path d="M36.5198 1.65416C35.3195 0.541628 33.7678 0 31.8355 0H31.4842C29.5372 0 27.9562 0.556267 26.7559 1.65416C26.0971 2.26898 25.6287 3.01555 25.3359 3.92315H37.9544C37.6616 3.03019 37.1932 2.26898 36.5345 1.65416" fill="white"/>
<path d="M55.4777 0.306641H51.3789V3.92238H55.4777V0.306641Z" fill="white"/>
<path d="M47.0459 0.306641H41.2344V3.92238H47.8657L47.0459 0.306641Z" fill="white"/>
<path d="M69.8529 1.65416C68.6818 0.541628 67.1301 0 65.2125 0H64.8611C62.9142 0 61.3479 0.556267 60.1621 1.65416C59.5034 2.26898 59.035 3.03019 58.7422 3.92315H71.2582C70.9654 3.03019 70.5116 2.26898 69.8675 1.65416" fill="white"/>
<path d="M84.4308 0.306641H74.4766V3.92238H84.4308V0.306641Z" fill="white"/>
<path d="M94.3869 0.306641H87.3164V3.92238H94.7821L94.3869 0.306641Z" fill="white"/>
<path d="M105.672 0.306641H98.5574L98.1914 3.92238H105.672V0.306641Z" fill="white"/>
<path d="M120.121 1.65416C118.921 0.541628 117.369 0 115.437 0H115.086C113.139 0 111.558 0.556267 110.357 1.65416C109.699 2.26898 109.23 3.01555 108.938 3.92315H121.556C121.263 3.03019 120.795 2.26898 120.136 1.65416" fill="white"/>
<path d="M136.428 2.00472C135.506 0.877546 134.027 0.306641 131.992 0.306641H124.805V3.92238H137.423C137.189 3.19045 136.852 2.56099 136.413 2.00472" fill="white"/>
<path d="M150.673 0.306641H140.719V3.92238H150.673V0.306641Z" fill="white"/>
<path d="M29.8454 12.7497C29.8454 11.9153 30.0064 11.3298 30.3285 10.9784C30.6505 10.6271 31.075 10.4515 31.602 10.4515H31.763C32.2607 10.4515 32.6853 10.6271 33.0366 10.9931C33.3879 11.3591 33.5636 11.9446 33.5636 12.7497V16.263H38.365V12.9107C38.365 10.8613 37.7649 9.28037 36.5645 8.16783C35.3641 7.0553 33.8124 6.51367 31.8801 6.51367H31.5288C29.5819 6.51367 28.0009 7.06994 26.8005 8.16783C25.6002 9.28037 25 10.8613 25 12.9107V16.263H29.8454V12.7497Z" fill="white"/>
<path d="M41.2344 6.82227V16.2642H49.1831L47.0459 6.82227H41.2344Z" fill="white"/>
<path d="M55.4777 6.82227H51.3789V16.2642H55.4777V6.82227Z" fill="white"/>
<path d="M63.2067 12.7497C63.2067 11.9153 63.3824 11.3298 63.7191 10.9784C64.0558 10.6271 64.4803 10.4515 65.0073 10.4515H65.1244C65.6514 10.4515 66.0759 10.6271 66.4126 10.9931C66.7493 11.3591 66.9249 11.9446 66.9249 12.7497V16.263H71.6093V12.9107C71.6093 10.8613 71.0237 9.28037 69.8527 8.16783C68.6816 7.0553 67.1299 6.51367 65.2122 6.51367H64.8609C62.914 6.51367 61.3476 7.06994 60.1619 8.16783C58.9762 9.28037 58.3906 10.8467 58.3906 12.8668V16.263H63.236V12.7497H63.2067Z" fill="white"/>
<path d="M79.278 10.7308H84.4308V6.82227H74.4766V16.2642H79.278V10.7308Z" fill="white"/>
<path d="M97.5938 16.2642H100.975H101.371H105.674V6.82227H98.5599L97.5938 16.2642Z" fill="white"/>
<path d="M92.03 16.2642H95.4116L94.3869 6.82227H87.3164V16.2642H91.6055H92.03Z" fill="white"/>
<path d="M113.404 12.7497C113.404 11.9153 113.565 11.3298 113.887 10.9784C114.209 10.6271 114.634 10.4515 115.161 10.4515H115.322C115.819 10.4515 116.244 10.6271 116.595 10.9931C116.947 11.3591 117.122 11.9446 117.122 12.7497V16.263H121.924V12.9107C121.924 10.8613 121.323 9.28037 120.123 8.16783C118.923 7.0553 117.371 6.51367 115.439 6.51367H115.087C113.14 6.51367 111.56 7.06994 110.359 8.16783C109.159 9.28037 108.559 10.8613 108.559 12.9107V16.263H113.404V12.7497Z" fill="white"/>
<path d="M140.719 6.82227V16.2642H145.52V10.7308H150.673V6.82227H140.719Z" fill="white"/>
<path d="M129.606 10.5981H131.29C132.431 10.5981 133.002 11.3885 133.002 12.9842V16.029C133.002 16.1022 133.002 16.19 133.002 16.2632H137.745C137.789 15.8826 137.818 15.4874 137.818 15.0628V13.1159C137.818 11.1836 137.35 9.66119 136.428 8.53402C135.506 7.40684 134.027 6.83594 131.992 6.83594H124.805V16.2778H129.606V10.6273V10.5981Z" fill="white"/>
<path d="M33.5489 41.6458C33.5489 42.4509 33.3733 43.0365 33.022 43.4025C32.6706 43.7684 32.2461 43.9441 31.7484 43.9441H31.5874C31.0604 43.9441 30.6505 43.7684 30.3138 43.4025C29.9918 43.0365 29.8307 42.4509 29.8307 41.6458V25.0896C29.8307 24.2552 29.9918 23.6696 30.3138 23.3183C30.6359 22.967 31.0604 22.7913 31.5874 22.7913H31.7484C32.2461 22.7913 32.6706 22.967 33.022 23.3329C33.3733 23.6989 33.5489 24.2844 33.5489 25.0896V41.6458ZM36.5499 20.5077C35.3495 19.3951 33.7978 18.8535 31.8655 18.8535H31.5142C29.5672 18.8535 27.9863 19.4098 26.7859 20.5077C25.6002 21.6056 25 23.1865 25 25.2506V41.4848C25 43.5342 25.6002 45.1152 26.8005 46.2277C28.0009 47.3402 29.5672 47.8819 31.5288 47.8819H31.8801C33.8124 47.8819 35.3641 47.3256 36.5645 46.2277C37.7649 45.1152 38.365 43.5342 38.365 41.4848V25.2506C38.365 23.2012 37.7649 21.6202 36.5645 20.5077" fill="white"/>
<path d="M51.3789 38.324L47.0459 19.1621H41.2344V47.5756H45.3332V28.3259L49.7394 47.5756H55.4777V19.1621H51.3789V38.324Z" fill="white"/>
<path d="M65.1966 18.8398H64.8453C62.8983 18.8398 61.332 19.3961 60.1463 20.494C58.9605 21.6065 58.375 23.1729 58.375 25.193V41.4711C58.375 43.5205 58.9605 45.1015 60.1463 46.214C61.332 47.3266 62.8983 47.8682 64.8453 47.8682H65.1966C67.1289 47.8682 68.6659 47.3119 69.837 46.214C71.0081 45.1015 71.5937 43.5205 71.5937 41.4711V37.2552H66.9825V41.6322C66.9825 42.4373 66.8068 43.0228 66.4409 43.3888C66.0749 43.7547 65.6504 43.9304 65.1527 43.9304H64.9917C64.4647 43.9304 64.0401 43.7547 63.7035 43.3888C63.3668 43.0228 63.1911 42.4373 63.1911 41.6322V25.0759C63.1911 24.2415 63.3668 23.6559 63.7035 23.3046C64.0401 22.9533 64.4647 22.7776 64.9917 22.7776H65.1088C65.6357 22.7776 66.0603 22.9533 66.397 23.3193C66.7336 23.6852 66.9093 24.2708 66.9093 25.0759V28.5892H71.5937V25.2369C71.5937 23.1875 71.0081 21.6065 69.837 20.494C68.6659 19.3815 67.1142 18.8398 65.1966 18.8398Z" fill="white"/>
<path d="M79.278 23.056H84.4308V19.1621H74.4766V47.5756H84.4308V43.6818H79.278V33.7568H84.4308V29.8483H79.278V23.056Z" fill="white"/>
<path d="M96.5387 38.9535L94.3869 19.1621H87.3164V47.5756H91.6055V24.9736L94.1966 47.5756H98.837L101.369 25.0468V47.5756H105.673V19.1621H98.5589L96.5387 38.9535Z" fill="white"/>
<path d="M117.107 41.6478C117.107 42.4529 116.931 43.0384 116.58 43.4044C116.228 43.7704 115.804 43.946 115.306 43.946H115.145C114.618 43.946 114.208 43.7704 113.871 43.4044C113.549 43.0384 113.388 42.4529 113.388 41.6478V25.0915C113.388 24.2571 113.549 23.6716 113.871 23.3202C114.193 22.9689 114.618 22.7933 115.145 22.7933H115.306C115.804 22.7933 116.228 22.9689 116.58 23.3349C116.931 23.7008 117.107 24.2864 117.107 25.0915V41.6478ZM120.107 20.5096C118.907 19.3971 117.355 18.8555 115.423 18.8555H115.072C113.125 18.8555 111.544 19.4117 110.344 20.5096C109.143 21.6222 108.543 23.2031 108.543 25.2525V41.4867C108.543 43.5362 109.143 45.1171 110.344 46.2297C111.544 47.3422 113.11 47.8838 115.072 47.8838H115.423C117.355 47.8838 118.907 47.3276 120.107 46.2297C121.308 45.1171 121.908 43.5362 121.908 41.4867V25.2525C121.908 23.2031 121.308 21.6222 120.107 20.5096Z" fill="white"/>
<path d="M133.002 28.3708C133.002 29.132 132.871 29.7321 132.607 30.1859C132.344 30.6397 131.919 30.874 131.319 30.874H129.606V22.9545H131.29C132.431 22.9545 133.002 23.745 133.002 25.3406V28.3854V28.3708ZM131.992 19.1631H124.805V47.5766H129.606V34.6507H131.319C132.329 34.6507 132.841 35.2655 132.841 36.4805V47.562H137.643V36.9783C137.643 35.7047 137.438 34.6946 137.013 33.9773C136.603 33.2454 135.901 32.7477 134.905 32.4549C135.945 32.1182 136.691 31.5327 137.13 30.6983C137.57 29.8639 137.789 28.766 137.789 27.3753V25.4284C137.789 23.4961 137.321 21.9737 136.398 20.8465C135.476 19.7193 133.998 19.1484 131.963 19.1484" fill="white"/>
<path d="M140.719 47.5756H150.673V43.6818H145.52V33.7568H150.673V29.8483H145.52V23.056H150.673V19.1621H140.719V47.5756Z" fill="white"/>
</svg>
